<?xml version="1.0" encoding="utf-8"?>
<!-- Generator: Adobe Illustrator 22.0.1, SVG Export Plug-In . SVG Version: 6.00 Build 0)  -->
<svg version="1.1" id="Layer_1" xmlns="http://www.w3.org/2000/svg" xmlns:xlink="http://www.w3.org/1999/xlink" x="0px" y="0px"
	 viewBox="0 0 48 48" style="enable-background:new 0 0 48 48;" xml:space="preserve">
<style type="text/css">
	.st0{fill:#527FB5;}
	.st1{fill:#FFFFFF;}
</style>
<g>
	<path class="st0" d="M48,24c0,13.3-10.7,24-24,24C10.7,48,0,37.3,0,24C0,10.7,10.7,0,24,0C37.3,0,48,10.7,48,24z"/>
	<g>
		<path class="st1" d="M32,29.2c-0.2,0-0.4,0.1-0.5,0.2c-0.1,0.1-0.2,0.4-0.2,0.7v0.8h1.3v-0.8c0-0.3-0.1-0.6-0.2-0.7
			C32.4,29.3,32.3,29.2,32,29.2z"/>
		<g>
			<path class="st1" d="M26.8,29.2c-0.1,0-0.2,0-0.3,0.1c-0.1,0.1-0.2,0.1-0.3,0.2v4.8c0.1,0.1,0.2,0.2,0.4,0.3
				c0.1,0.1,0.2,0.1,0.4,0.1c0.2,0,0.3-0.1,0.4-0.2c0.1-0.1,0.1-0.3,0.1-0.5v-4c0-0.3-0.1-0.5-0.2-0.6C27.2,29.2,27,29.2,26.8,29.2z
				"/>
			<g>
				<path class="st1" d="M33.5,23h-19c-3,0-5.5,2.8-5.5,5.9v4.5c0,3.1,2.5,5.6,5.5,5.6h19c3,0,5.5-2.5,5.5-5.6v-4.5
					C39,25.8,36.5,23,33.5,23z M18.5,26.8h-1.8v9H15v-9h-1.8v-1.5h5.2V26.8z M23.5,35.8H22v-0.9c-0.3,0.3-0.6,0.6-0.9,0.7
					c-0.3,0.2-0.6,0.2-0.9,0.2c-0.4,0-0.6-0.1-0.8-0.3c-0.2-0.2-0.3-0.6-0.3-1V28h1.5v6c0,0.2,0,0.3,0.1,0.4
					c0.1,0.1,0.2,0.1,0.3,0.1c0.1,0,0.3-0.1,0.4-0.2c0.2-0.1,0.3-0.2,0.5-0.4V28h1.5V35.8z M29,34.2c0,0.5-0.1,1-0.4,1.3
					c-0.2,0.3-0.6,0.4-1,0.4c-0.3,0-0.6-0.1-0.8-0.2c-0.2-0.1-0.4-0.3-0.6-0.5v0.6h-1.5V25.3h1.5v3.4c0.2-0.2,0.4-0.4,0.7-0.5
					c0.2-0.1,0.5-0.2,0.7-0.2c0.5,0,0.8,0.2,1.1,0.5c0.3,0.3,0.4,0.8,0.4,1.5V34.2z M34.3,32.1h-2.9v1.5c0,0.4,0,0.7,0.1,0.9
					c0.1,0.2,0.3,0.2,0.5,0.2c0.3,0,0.4-0.1,0.5-0.2c0.1-0.1,0.2-0.4,0.2-0.9v-0.4h1.6v0.4c0,0.8-0.2,1.4-0.6,1.8
					C33.3,35.8,32.7,36,32,36c-0.7,0-1.2-0.2-1.6-0.6c-0.4-0.4-0.6-1-0.6-1.8v-3.5c0-0.7,0.2-1.2,0.6-1.6c0.4-0.4,1-0.6,1.7-0.6
					c0.7,0,1.2,0.2,1.6,0.6c0.4,0.4,0.6,1,0.6,1.7V32.1z"/>
				<polygon class="st1" points="14.7,9 17,16 17,20.6 18.9,20.6 18.9,15.8 21.1,9 19.2,9 18,13.6 17.9,13.6 16.6,9 				"/>
				<path class="st1" d="M22,12.4c-0.5,0.4-0.7,0.9-0.7,1.6v4.4c0,0.7,0.2,1.3,0.7,1.7c0.5,0.4,1,0.6,1.8,0.6c0.8,0,1.4-0.2,1.8-0.6
					c0.4-0.4,0.7-1,0.7-1.7V14c0-0.7-0.2-1.2-0.7-1.6c-0.5-0.4-1-0.6-1.7-0.6C23,11.8,22.4,12,22,12.4z M24.5,13.9v4.7
					c0,0.2-0.1,0.4-0.2,0.5c-0.1,0.1-0.3,0.2-0.6,0.2c-0.2,0-0.4-0.1-0.5-0.2C23.1,19,23,18.8,23,18.6v-4.7c0-0.2,0.1-0.3,0.2-0.5
					c0.1-0.1,0.3-0.2,0.5-0.2c0.2,0,0.4,0.1,0.5,0.2C24.4,13.6,24.5,13.7,24.5,13.9z"/>
				<path class="st1" d="M32.5,20.6V12h-1.7v6.5c-0.2,0.2-0.3,0.3-0.5,0.5c-0.2,0.1-0.4,0.2-0.5,0.2c-0.2,0-0.3,0-0.3-0.1
					c-0.1-0.1-0.1-0.2-0.1-0.4V12h-1.7v7.1c0,0.5,0.1,0.9,0.3,1.1c0.2,0.3,0.5,0.4,0.9,0.4c0.3,0,0.7-0.1,1-0.3
					c0.3-0.2,0.7-0.4,1-0.8v0.9H32.5z"/>
			</g>
		</g>
	</g>
</g>
</svg>
